<?xml version="1.0" encoding="utf-8"?>
<!-- Generator: Adobe Illustrator 24.3.0, SVG Export Plug-In . SVG Version: 6.00 Build 0)  -->
<svg version="1.1" id="Layer_1" xmlns="http://www.w3.org/2000/svg" xmlns:xlink="http://www.w3.org/1999/xlink" x="0px" y="0px"
	 viewBox="0 0 1100 1500" style="enable-background:new 0 0 1100 1500;" xml:space="preserve">
<style type="text/css">
	.st0{stroke:#000000;stroke-miterlimit:10;}
</style>
<path class="st0" d="M660.5,705.5c0,16.49-1.46,32.64-4.25,48.33v0.01c-2.25,12.69-5.38,25.07-9.33,37.09
	c-9.39,4.19-19.59,6.88-30.31,7.75c-2.55,0.21-5.13,0.32-7.73,0.32c-6.72,0-13.28-0.71-19.59-2.06c3.58-7.94,6.71-16.12,9.35-24.52
	c2.59-8.21,4.71-16.63,6.34-25.22c2.56-13.51,3.9-27.45,3.9-41.7s-1.34-28.19-3.9-41.69c-1.63-8.6-3.75-17.02-6.34-25.23
	c-2.64-8.4-5.77-16.58-9.35-24.52c-3.66-8.11-7.8-15.97-12.37-23.53c8.75-2.44,17.9-3.89,27.34-4.24c1.53-0.07,3.07-0.1,4.62-0.1
	c8.82,0,17.42,0.96,25.69,2.78c4.73,10.05,8.86,20.43,12.35,31.1c3.95,12.02,7.08,24.4,9.33,37.09v0.01
	C659.04,672.86,660.5,689.01,660.5,705.5z"/>
<path class="st0" d="M646.92,790.93c-3.49,10.67-7.62,21.05-12.35,31.1c-4.57,9.74-9.71,19.16-15.36,28.23
	c-5.62,9.03-11.75,17.7-18.36,25.98c-6.64,8.35-13.77,16.3-21.34,23.82c-7.68,7.62-15.8,14.79-24.34,21.46
	c-8.69,6.81-17.8,13.1-27.28,18.83c-9.72,5.86-19.82,11.15-30.28,15.79c-10.46-4.64-20.56-9.92-30.28-15.79
	c-9.49-5.73-18.61-12.02-27.3-18.83c-8.53-6.67-16.66-13.84-24.33-21.46c-7.57-7.52-14.7-15.47-21.34-23.82
	c-6.61-8.28-12.74-16.95-18.36-25.98c-5.65-9.07-10.79-18.49-15.36-28.23c-4.73-10.05-8.86-20.43-12.35-31.1
	c-3.95-12.02-7.08-24.41-9.33-37.1c-2.79-15.69-4.25-31.84-4.25-48.33s1.46-32.64,4.25-48.33c2.25-12.69,5.38-25.08,9.33-37.1
	c3.49-10.67,7.62-21.05,12.35-31.1c8.27-1.82,16.87-2.78,25.69-2.78c1.55,0,3.09,0.03,4.62,0.1c9.44,0.35,18.59,1.8,27.34,4.24
	c-4.57,7.56-8.71,15.42-12.37,23.53c-3.58,7.94-6.71,16.12-9.35,24.52c-2.59,8.21-4.71,16.63-6.34,25.23
	c-2.56,13.5-3.9,27.44-3.9,41.69s1.34,28.19,3.9,41.7c1.63,8.59,3.75,17.01,6.34,25.22c2.64,8.4,5.77,16.58,9.35,24.52
	c3.66,8.11,7.8,15.97,12.37,23.53c4.68,7.74,9.81,15.17,15.37,22.26c5.69,7.25,11.82,14.14,18.34,20.63
	c6.7,6.65,13.82,12.89,21.32,18.65c7.71,5.94,15.82,11.37,24.28,16.27c8.47-4.9,16.58-10.33,24.29-16.27
	c7.5-5.76,14.62-12,21.32-18.65c6.52-6.49,12.65-13.38,18.34-20.63c5.56-7.09,10.69-14.52,15.37-22.26
	c4.57-7.56,8.71-15.42,12.37-23.53c6.31,1.35,12.87,2.06,19.59,2.06c2.6,0,5.18-0.11,7.73-0.32
	C627.33,797.81,637.53,795.12,646.92,790.93z"/>
<path class="st0" d="M584.72,751.4c0,29.78-14.8,56.09-37.44,72c-4.22-6.73-9.65-12.54-15.95-17.09
	c18.53-11.26,30.9-31.64,30.9-54.91c0-35.47-28.75-64.22-64.22-64.22c-35.47,0-64.22,28.75-64.22,64.22
	c0,23.27,12.37,43.65,30.9,54.91c-6.67,4.81-12.36,11.05-16.68,18.28c-23.62-15.77-39.18-42.66-39.18-73.19
	c0-48.57,39.38-87.95,87.95-87.95C545.35,663.45,584.72,702.83,584.72,751.4z"/>
<circle cx="496.77" cy="748.64" r="22.53"/>
</svg>
